<svg xmlns="http://www.w3.org/2000/svg" data-name="Layer 1" viewBox="0 0 700 550"><path d="M253.24905 197.66576l-.00918.00034a.0846.0846 0 01-.0422-.00941l-.007-.00369a36.90049 36.90049 0 00-3.7027-1.62879c-1.25246-.47615-2.55063-.93727-3.81285-1.30708l.10244.01486-.01838.00051a.29468.29468 0 01-.09279-.01208l-.0253-.00771a76.35378 76.35378 0 00-20.58011-3.46624 84.942 84.942 0 00-10.43508.33271l-10.51234.88815c-7.01053.56555-14.03422.96989-21.0545 1.41678-7.022.42544-14.04092.88685-21.04986 1.4706l.15-.5369a20.38059 20.38059 0 013.38224 3.09519 18.786 18.786 0 012.52953 3.83293 23.53537 23.53537 0 011.56441 4.31951 26.75013 26.75013 0 01.68914 4.53925 37.41312 37.41312 0 01-.61234 9.13277 44.54922 44.54922 0 01-2.55642 8.82218l-.83478-1.07437c4.93168-.93171 9.86188-1.8716 14.79992-2.76707l14.80831-2.71863-.809.72923.1072-.31785-.03256.08649a10.342 10.342 0 014.17834-5.52388 11.00125 11.00125 0 016.67726-1.80206 10.51677 10.51677 0 016.38379 2.6985 3.78114 3.78114 0 01.61891.62782l.57218.67251a15.677 15.677 0 01.94754 1.47565c.27383.505.46078 1.02433.69344 1.53628.10844.2575.22653.51234.32613.77211l.24423.79372a38.29157 38.29157 0 011.33958 12.9159 67.62308 67.62308 0 01-1.79866 12.73167l-.74018-.74284 9.95468-2.08163 9.97521-1.99439a.09827.09827 0 01.04379.19153l-9.83829 2.58053-9.85588 2.50611a.60908.60908 0 01-.74834-.70286l.00794-.04015a76.39888 76.39888 0 001.35829-12.5001 36.57666 36.57666 0 00-1.55771-12.25059l-.23335-.72435c-.09313-.23368-.20293-.45908-.3031-.68908-.21235-.44972-.39068-.93392-.62753-1.35619-.2684-.3921-.47871-.82832-.7834-1.18951l-.46657-.53326a2.61725 2.61725 0 00-.50014-.49669 8.45471 8.45471 0 00-5.1353-2.09927 8.904 8.904 0 00-5.39791 1.44672 8.46959 8.46959 0 00-3.37873 4.4147l-.03267.08689a.35609.35609 0 01-.0228.07209l-.066.15a1.00328 1.00328 0 01-.74335.57944l-14.84462 2.51314c-4.94631.84846-9.90056 1.6525-14.85323 2.46476a.77444.77444 0 01-.8349-1.07453 47.11615 47.11615 0 002.7411-8.43587 35.17011 35.17011 0 00.89989-8.8384 25.90312 25.90312 0 00-.52521-4.40771 19.90492 19.90492 0 00-1.42851-4.1919 18.11767 18.11767 0 00-2.3933-3.7204 19.76364 19.76364 0 00-3.23693-3.03257l-.00828-.00641a.29705.29705 0 01.15824-.5306c7.01008-.56952 14.01051-1.25706 21.0072-1.98844 6.99862-.70876 13.99373-1.46 21.0021-2.0501l10.51574-.84522a76.32035 76.32035 0 0110.64313-.163 70.6997 70.6997 0 0110.5475 1.38575 66.54353 66.54353 0 0110.20084 2.92759l-.11775-.01968.01838.00051.02779.00079a.2512.2512 0 01.075.01412c1.31462.46946 2.54462.99133 3.796 1.55052a31.06469 31.06469 0 013.6124 1.90688l-.04877-.013.00918.00034a.09831.09831 0 010 .19647zM296.23743 223.86606a21.13049 21.13049 0 00-3.30522-7.82881 19.02657 19.02657 0 00-2.77365-3.098 24.78386 24.78386 0 00-3.358-2.46879 35.07493 35.07493 0 00-7.74605-3.35264 54.02013 54.02013 0 00-8.39583-1.82861l-.0549-.00538q-1.45722-.40617-2.90456-.86751c1.01174.04974 2.01941.12183 3.02412.21042l-.05456-.00539A32.11611 32.11611 0 01279.5 205.462a27.69134 27.69134 0 018.31461 3.36126 18.25887 18.25887 0 016.34567 6.43449A16.09817 16.09817 0 01296.23743 223.86606z"/><path d="M203.18889 215.772c1.712-.6627 3.44316-1.23965 5.18624-1.76293q2.6124-.79565 5.2518-1.46941c1.75442-.47286 3.52812-.85861 5.295-1.27543 1.77654-.37275 3.54979-.76241 5.33994-1.0755l.4137-.07231.26.19851a14.346 14.346 0 012.022 1.90149 18.48306 18.48306 0 011.66662 2.11612 19.231 19.231 0 011.35478 2.30453 17.145 17.145 0 011.01379 2.45245q-.76911-1.07631-1.584-2.08367c-.551-.67064-1.107-1.33975-1.68692-1.94692-.592-.61562-1.19767-1.21123-1.827-1.772a22.45471 22.45471 0 00-1.92878-1.51779l.67337.12614c-1.75453.47037-3.52586.865-5.29241 1.28315-1.77666.37218-3.54639.77545-5.33541 1.09166q-2.67485.514-5.37862.89774C206.83261 215.43365 205.02034 215.64572 203.18889 215.772zM178.26539 193.71951a19.71188 19.71188 0 014.83957 6.95756 27.57647 27.57647 0 012.13046 8.31074 30.57712 30.57712 0 01-.52079 8.54131c-.0692.34905-.12228.7007-.20487 1.04606l-.29323 1.02564-.61551 2.03359c-.49708 1.32552-1.07879 2.618-1.68863 3.8791.19852-1.40685.52624-2.75539.75459-4.11992l.288-2.05061.1587-1.01651c.04265-.3398.05559-.68374.08485-1.02456.04753-.68341.102-1.36329.17379-2.04023.05071-.67864.024-1.36107.0405-2.0392a36.76672 36.76672 0 00-.13284-4.0581 37.99559 37.99559 0 00-1.60253-7.94469A33.25028 33.25028 0 00178.26539 193.71951z"/><path d="M231.52251 214.1644c1.46828-.54824 2.9458-1.08723 4.43267-1.59833a14.37955 14.37955 0 00-.13011 1.83065c-1.2731.39959-2.55551.78062-3.84722 1.1523-.87352.25092-1.74705.50184-2.62981.75271q-.18123-.27881-.36244-.52969c-.12081-.17657-.25092-.34383-.36243-.50179C229.5896 214.88927 230.55608 214.52684 231.52251 214.1644zM246.16793 211.02344c-1.13369.39028-2.24883.78062-3.38258 1.1616h-.0093a9.38516 9.38516 0 00-1.2266-1.55188l.41813-.13941c1.25456-.40889 2.50906-.81777 3.76362-1.21735C245.87986 209.9083 246.03782 210.49375 246.16793 211.02344zM239.7838 204.89954c1.86786-.60406 3.73571-1.20811 5.61282-1.79356a5.8962 5.8962 0 00-.28808 1.93291c-1.57048.5576-3.15951 1.08724-4.73929 1.62624-3.50339 1.143-7.02533 2.26744-10.57518 3.28038q-2.46726.72477-4.96237 1.38461c-1.9143.51109-3.82861.99433-5.77077 1.41252.77126-.34389 1.54257-.68771 2.32319-1.02224.0093 0 .0093 0 .01855-.0093 2.62057-1.11509 5.27834-2.14663 7.93606-3.141C232.79562 207.26918 236.28971 206.07968 239.7838 204.89954zM254.40131 201.60986c-.158.06506-.31592.13011-.47394.18587a4.97916 4.97916 0 00-1.3567-.80847q.75267-.20911 1.50542-.41819C254.1969 200.95935 254.30841 201.31248 254.40131 201.60986zM166.45644 228.23941c-20.97963-19.14856-4.46808-33.17711-4.46808-33.17711C176.65168 205.68016 166.45644 228.23941 166.45644 228.23941zM214.77556 249.25043c-17.31208 5.164-18.66693-26.24066-18.66693-26.24066q.03045-.09666.0615-.192c2.603-7.99576 13.76034-9.02993 17.60944-1.55382C218.99553 231.39491 214.77556 249.25043 214.77556 249.25043zM227.83414 245.49978c-2.86735 7.06515-5.80084 14.05741-8.50019 21.11417a181.6882 181.6882 0 00-6.96084 21.36107 47.86082 47.86082 0 00-1.01878 5.40568 17.91527 17.91527 0 00.02359 5.3118 7.4926 7.4926 0 00.8307 2.35989 5.11056 5.11056 0 001.6791 1.71778 8.17069 8.17069 0 005.09276.76219 32.20265 32.20265 0 0010.47967-3.77428c.82469-.45693 1.65062-.90818 2.4651-1.38479l2.4077-1.49839c1.62476-.96342 3.14743-2.09144 4.70617-3.151 1.55307-1.06954 3.03014-2.24906 4.54441-3.36432l2.19943-1.77217c.732-.59073 1.48523-1.1519 2.19138-1.77456 1.41967-1.23431 2.8973-2.39142 4.27806-3.66662l2.10482-1.86883 2.05049-1.92831q4.0851-3.87045 7.85961-8.0469c2.53385-2.76338 4.96526-5.6186 7.33961-8.52134a202.45277 202.45277 0 0013.27691-18.21245q3.07336-4.74376 5.89817-9.66422c1.886-3.27726 3.6909-6.61588 5.33472-10.03789l.37026.13153a108.45623 108.45623 0 01-8.94225 21.14968 136.3537 136.3537 0 01-12.6715 19.25874 129.08075 129.08075 0 01-15.96049 16.68462l-2.17981 1.89514-2.24107 1.82254c-1.48432 1.22529-3.03773 2.36584-4.59057 3.50061-1.55568 1.13131-3.171 2.18123-4.77185 3.2413-1.64813.99343-3.25292 2.04573-4.92828 2.98379-1.67331.94085-3.32461 1.91029-5.03116 2.782-1.69158.89434-3.37828 1.79583-5.10683 2.63214a42.07662 42.07662 0 01-10.91141 3.84637 9.987 9.987 0 01-6.03134-.60774 6.86282 6.86282 0 01-2.4735-2.09853 10.0649 10.0649 0 01-1.37191-2.86888 20.10153 20.10153 0 01-.69752-6.02368 40.4335 40.4335 0 01.59135-5.87537 68.26711 68.26711 0 013.042-11.20606c1.2747-3.63492 2.73168-7.1863 4.31334-10.67472.77455-1.7509 1.6167-3.47021 2.46453-5.18391.8408-1.717 1.72742-3.41094 2.64014-5.0897 1.81885-3.36057 3.73617-6.66573 5.85914-9.8523zM181.64661 199.13222c5.35174-.80535 10.71788-1.4174 16.089-1.96144 5.37034-.5563 10.74908-.998 16.12952-1.41745 5.38316-.38285 10.76813-.74115 16.16162-.98538 5.39257-.25648 10.79025-.44337 16.20245-.43554-5.35151.80779-10.71765 1.42086-16.08879 1.96439-5.37034.55573-10.74919.9974-16.12974 1.41451-5.38339.38047-10.76837.73876-16.16185.98242C192.45626 198.94964 187.05858 199.13761 181.64661 199.13222z"/><path d="M247.3763,289.28607c-.76967-6.82489-1.50985-13.66073-2.17266-20.50405l-.25387-2.56612-.12694-1.2832c-.01271-.10005-.01656-.2292-.03641-.30543a1.381,1.381,0,0,1-.05661-.18666,5.26213,5.26213,0,0,0-.21927-.50321c-.75822-1.437-1.75329-2.87444-2.67667-4.30908-1.8843-2.87189-3.70168-5.81632-5.3261-8.88173-.8037-1.53793-1.56089-3.1058-2.22269-4.72392-.65476-1.63866-1.20368-3.2704-1.77223-4.88143-1.14185-3.23506-2.27373-6.47312-3.36329-9.726l-1.65335-4.87287-.41337-1.21825a6.42181,6.42181,0,0,1-.32193-1.42443,5.83077,5.83077,0,0,1,.4044-2.9066,4.33677,4.33677,0,0,1,2.02667-2.27289,4.15633,4.15633,0,0,1,3.03252-.1216,13.3153,13.3153,0,0,1,4.5655,2.88209l-1.02161.57383a49.2381,49.2381,0,0,1-.45443-4.99787c-.03222-.83468-.03744-1.67865-.00386-2.51411.07079-.84233.10459-1.69838.24661-2.53425a6.08694,6.08694,0,0,1,.93064-2.49539,2.193,2.193,0,0,1,1.22025-.86615,2.81433,2.81433,0,0,1,1.4318.0789,7.152,7.152,0,0,1,3.93321,3.26829l-.29641-.16164.00907,0,.19228.00114.10209.15722a27.60021,27.60021,0,0,1,1.54762,2.838,9.51233,9.51233,0,0,0,.74914,1.33329c.17583.20832.17322.20543.42335.22a.38706.38706,0,0,0,.38614-.21423,3.13836,3.13836,0,0,0,.20317-1.39953,14.873,14.873,0,0,0-.12286-1.56021,22.71168,22.71168,0,0,0-.61641-3.09939,30.5102,30.5102,0,0,1-.68244-3.14629,10.00749,10.00749,0,0,1-.04458-3.28225,4.55834,4.55834,0,0,1,.61789-1.59118,3.563,3.563,0,0,1,1.27084-1.18032,6.37106,6.37106,0,0,1,3.27266-.63077l-.058.00273a5.61208,5.61208,0,0,1,1.44236.04753,6.19156,6.19156,0,0,1,1.37519.389,5.32231,5.32231,0,0,1,2.23982,1.76763l-.036-.04174a.44736.44736,0,0,1,.12195.29l-.00692,1.58455-.72668-1.41014-.00942-.01832-.00919-.01764-.01554-.04447a45.46254,45.46254,0,0,1-2.61109-10.70688,13.003,13.003,0,0,1,.03879-2.85028,4.4986,4.4986,0,0,1,1.29058-2.79554,3.08145,3.08145,0,0,1,1.536-.71369,3.804,3.804,0,0,1,1.63588.16664,7.45678,7.45678,0,0,1,2.52828,1.586,22.897,22.897,0,0,1,3.574,4.35174,52.61588,52.61588,0,0,1,2.796,4.79158,49.514,49.514,0,0,1,4.15,10.28631c.94686,3.53811,1.841,7.04383,3.05532,10.427,1.22512,3.34123,2.70332,6.70328,5.05521,9.14a7.19193,7.19193,0,0,0,4.15078,2.24957,8.55173,8.55173,0,0,0,2.459-.09988,20.00251,20.00251,0,0,0,2.55982-.52516,22.05784,22.05784,0,0,0,4.84536-1.9535,19.69769,19.69769,0,0,0,4.16382-3.04426l1.00347-.99609.5344,1.21888a13.666,13.666,0,0,1,1.04192,4.3067,18.1328,18.1328,0,0,1-.1536,4.30982,21.88856,21.88856,0,0,1-3.00393,7.94815,16.09573,16.09573,0,0,1-2.71319,3.34934,20.01778,20.01778,0,0,1-3.48206,2.48246c-1.226.68913-2.48212,1.261-3.63351,1.90314a7.13484,7.13484,0,0,0-2.78908,2.40645,7.91774,7.91774,0,0,0-.90443,3.62455c-.08962,1.344-.14055,2.69935-.15655,4.05895-.034,2.71909.01849,5.44719.11537,8.17349.1047,2.72612.21065,5.45491.38727,8.17955.19307,2.7196.34383,5.45922.80121,8.139l-.181.04168c-.58364-2.68976-.85419-5.41418-1.17011-8.1335-.28813-2.72209-.55085-5.4481-.73031-8.18109-.18138-2.73292-.31876-5.46976-.369-8.21727q-.03914-2.06058.03256-4.13739a9.165,9.165,0,0,1,.97329-4.26,8.52243,8.52243,0,0,1,3.25712-2.97313c1.22365-.711,2.44888-1.29585,3.59335-1.96932a18.44215,18.44215,0,0,0,3.1396-2.324,14.42486,14.42486,0,0,0,2.37095-3.04845,20.19707,20.19707,0,0,0,2.62425-7.33984,16.27823,16.27823,0,0,0,.12376-3.86305,12.11682,12.11682,0,0,0-.86643-3.63l1.53764.22273a22.77658,22.77658,0,0,1-9.88321,5.5747,21.93879,21.93879,0,0,1-2.79135.58443c-.48131.052-.92213.1423-1.43725.16119l-.77273.02326c-.25841-.01532-.51739-.04521-.77591-.06954a8.94532,8.94532,0,0,1-5.29888-2.82141c-2.705-2.889-4.14715-6.428-5.39507-9.89773-1.21412-3.499-2.08509-7.081-2.98669-10.5956-.22982-.87557-.45908-1.74727-.736-2.57355-.28246-.84244-.60156-1.68182-.93415-2.51649-.66747-1.66951-1.40367-3.3186-2.2067-4.93083a51.12189,51.12189,0,0,0-2.62856-4.70311,22.61483,22.61483,0,0,0-3.2603-4.15548,6.23218,6.23218,0,0,0-2.02417-1.374,2.57,2.57,0,0,0-1.05712-.14855,1.86284,1.86284,0,0,0-.92157.39584,3.39728,3.39728,0,0,0-.96512,2.06116,11.95359,11.95359,0,0,0-.10448,2.6065,44.42691,44.42691,0,0,0,2.31095,10.5551l-.02451-.06177.009.01855-.7336.17441a.3416.3416,0,0,0,.10357.25314l-.03619-.042a4.56623,4.56623,0,0,0-1.89871-1.57877,5.1175,5.1175,0,0,0-2.44786-.41727l-.03664.00351-.02178-.00073a5.74146,5.74146,0,0,0-2.93224.52164,3.23487,3.23487,0,0,0-1.59538,2.32551,9.44572,9.44572,0,0,0,.02167,3.07659,29.98627,29.98627,0,0,0,.64443,3.10035,25.84835,25.84835,0,0,1,.656,3.156,15.45861,15.45861,0,0,1,.14656,1.62125,3.58057,3.58057,0,0,1-.267,1.72577,1.119,1.119,0,0,1-1.86264.08412,9.80819,9.80819,0,0,1-.83671-1.43458,27.02,27.02,0,0,0-1.54093-2.7504l.29414.15824-.00907.00006-.19137.00113-.10539-.16295a6.19909,6.19909,0,0,0-3.54139-2.8766,1.4113,1.4113,0,0,0-1.743.52715,5.275,5.275,0,0,0-.7015,2.13585c-.10981.79582-.114,1.59691-.15926,2.39954-.00806.8151.02155,1.62322.07747,2.43714a48.81711,48.81711,0,0,0,.585,4.84972l.28473,1.6551-1.30646-1.08122a12.15111,12.15111,0,0,0-4.13807-2.483,2.7346,2.7346,0,0,0-1.99117.09829,2.97162,2.97162,0,0,0-1.26335,1.54507,4.28667,4.28667,0,0,0-.27247,2.141,4.84733,4.84733,0,0,0,.25478,1.07874l.42516,1.21587,1.70076,4.86351c1.1464,3.23812,2.25048,6.49093,3.3447,9.7468.55414,1.63231,1.08378,3.2616,1.68545,4.81717.61993,1.56691,1.3389,3.10171,2.10743,4.61468,1.54536,3.02639,3.33835,5.93061,5.13825,8.84957.8898,1.47729,1.82407,2.89112,2.62426,4.51406a5.783,5.783,0,0,1,.26918.68488c.0354.14571.06637.29318.09246.43951.02007.134.0186.22121.02892.33408l.09064,1.28206.18116,2.56442c.49753,6.83816.9177,13.6837,1.30827,20.54024Z"/><polygon points="258.573 212.742 254.35 202.901 255.219 202.572 258.573 212.742"/><path d="M396.1699,179.12355c-3.42558,1.45149-6.99578,2.6719-10.57121,3.79158a101.84467,101.84467,0,0,1-10.9409,2.72062,55.36306,55.36306,0,0,1-11.289,1.12473,30.96062,30.96062,0,0,1-5.7288-.58777,16.35639,16.35639,0,0,1-5.49252-2.126l.082.04713c-2.83661-1.41541-5.68842-2.80088-8.50927-4.2476l-.94118-.48273.56639-.81522a1.20388,1.20388,0,0,1,.25251-.2896,1.24464,1.24464,0,0,1,.153-.12257c.08541-.05882.18581-.13573.26147-.17549.15666-.086.32432-.19233.473-.256.30685-.15155.60961-.28138.90795-.3947.60031-.23374,1.19529-.44093,1.79254-.61812,1.19188-.378,2.39137-.66384,3.59017-.94431q3.59674-.82959,7.21857-1.40339c2.41213-.40548,4.82846-.76139,7.24716-1.08967,2.417-.34247,4.8398-.62771,7.25987-.93087l-.32783.18048,4.94971-5.66466c1.65267-1.89065,3.24487-3.81012,4.95369-5.67974a49.45019,49.45019,0,0,1,11.85441-9.33389,52.22069,52.22069,0,0,1,6.87259-3.19275,57.10968,57.10968,0,0,1,7.27563-2.13471,44.96578,44.96578,0,0,1,15.16179-1.20181,31.1206,31.1206,0,0,1,14.27459,5.564,33.1359,33.1359,0,0,1,9.98338,11.68817,35.27886,35.27886,0,0,1,2.72317,7.25363L450.637,171.7c.11514.62855.226,1.2524.32171,1.88249q.30084,1.88523.48891,3.79163a46.86618,46.86618,0,0,1,.18615,7.68185,30.18159,30.18159,0,0,1-1.41081,7.65117l-.321.96388-.97023-.29165-13.10993-3.941-13.14567-3.827c-4.382-1.27543-8.7747-2.51314-13.18662-3.66867q-3.30339-.89212-6.62915-1.68233c-1.1127-.23079-2.22-.52856-3.34016-.705l-1.67909-.30084Zm-.0456-.2009,1.75045.01815,1.70995.1954c1.145.1207,2.26194.36045,3.396.5352,2.2515.41325,4.49823.85537,6.73136,1.34876,4.46625.99116,8.91151,2.06433,13.34611,3.17528,4.436,1.10794,8.84651,2.307,13.2591,3.49784,4.4093,1.20578,8.81974,2.397,13.211,3.6799l-1.29092.67211c1.4731-4.56919,1.46266-9.57846,1.01923-14.45552q-.17644-1.83726-.46724-3.66748c-.09143-.60944-.19909-1.2203-.30878-1.8247l-.38535-1.77693a33.43351,33.43351,0,0,0-2.46646-6.8283,31.138,31.138,0,0,0-9.23265-11.09614,30.014,30.014,0,0,0-13.36619-5.51888,44.715,44.715,0,0,0-14.7187.70586,47.04258,47.04258,0,0,0-14.02639,4.8816,45.1633,45.1633,0,0,0-11.72645,9.14014c-3.28378,3.74842-6.41374,7.69824-9.58612,11.57309l-.12013.14673-.20805.03391c-2.4018.39119-4.80576.76758-7.19951,1.1945-2.39591.413-4.78683.85333-7.16356,1.341-2.37844.48217-4.747.99791-7.0871,1.57706-1.16818.29244-2.33023.61137-3.46142.96626-.56957.17084-1.1253.36856-1.65834.57825q-.40668.15569-.766.33509c-.13182.05638-.21848.12047-.33.17844a1.30946,1.30946,0,0,0-.11763.07849c-.02133.0135-.03823.02575-.0261.01821.01294-.022-.03425.05394.09166-.12824l-.37479-1.29766c2.8391,1.41064,5.64712,2.88266,8.47046,4.32462l.045.023.0372.02427c2.93031,1.90915,6.67669,2.45926,10.30146,2.58932a51.11974,51.11974,0,0,0,5.51543-.163c1.84256-.13278,3.6841-.3554,5.518-.64138,3.6732-.54948,7.30682-1.38313,10.92536-2.2794C388.98774,181.16752,392.55,180.10972,396.1243,178.92265Z"/><path d="M418.81457 150.83306c-1.75987 2.06734-3.56227 4.07676-5.37341 6.07535l-5.42831 5.98631q-2.71382 2.98776-5.3835 6.01285c-1.76746 2.02916-3.51553 4.07024-5.2518 6.15907a51.0347 51.0347 0 014.42008-6.8355c1.626-2.17583 3.39325-4.23591 5.19781-6.25832 1.82849-2.001 3.715-3.94671 5.68127-5.81009A78.1883 78.1883 0 01418.81457 150.83306zM428.21125 151.82217a71.54124 71.54124 0 013.85335 8.17406q1.69389 4.19332 2.95946 8.5501a71.874 71.874 0 011.95293 8.851 40.94818 40.94818 0 01.38365 9.04423 86.219 86.219 0 00-1.43839-8.85246c-.64239-2.9112-1.39743-5.79539-2.21769-8.66337-.81-2.87206-1.728-5.71513-2.64332-8.56388C430.11858 157.52222 429.18953 154.67138 428.21125 151.82217zM372.57293 172.84106a43.40426 43.40426 0 014.85568.34014c1.60638.18071 3.19836.44042 4.7875.71545 1.5846.30027 3.166.61755 4.73328 1.0135a42.91966 42.91966 0 014.66419 1.39284 42.90918 42.90918 0 01-4.856-.3381c-1.60627-.181-3.19824-.44076-4.787-.71743-1.58427-.302-3.16581-.61925-4.73294-1.01555A43.40929 43.40929 0 01372.57293 172.84106zM372.57293 185.313c.02563 1.379-.04708 2.75561-.1452 4.13438a26.45124 26.45124 0 01-.59339 4.13433 6.53408 6.53408 0 01-.81936 2.079c-.35131.52453-.6931 1.13755-1.03375 1.72124-.68652 1.17906-1.34945 2.37877-2.01113 3.57752q-2.00631 3.58553-3.94591 7.20655c-.63468 1.21145-1.29148 2.41167-1.89883 3.63027-.30582.60808-.59554 1.22184-.87925 1.83111-.13862.30537-.27066.61176-.38466.91385-.051.148-.11208.30361-.142.43582a.7824.7824 0 00-.038.17209c-.002.01106-.01168.06636-.01123.042a.13584.13584 0 00-.0642-.11531l-.25229-.177a5.18208 5.18208 0 001.43237.13487 8.18939 8.18939 0 001.527-.20566 12.68389 12.68389 0 001.50486-.45273 14.58347 14.58347 0 001.45551-.64829l.06965-.03494.04606.00908a2.97176 2.97176 0 011.31666.60967 2.30714 2.30714 0 01.74585 1.18133 2.20536 2.20536 0 00-.87392-1.0063 2.6927 2.6927 0 00-1.22546-.40747l.11537-.0258a11.84674 11.84674 0 01-2.95867 1.488 8.99723 8.99723 0 01-1.65652.36663 5.27017 5.27017 0 01-1.78811-.0591l-.16937-.03755-.08315-.13964a1.11171 1.11171 0 01-.135-.36289 1.05212 1.05212 0 01-.002-.21366 1.59366 1.59366 0 01.04424-.33492 5.45662 5.45662 0 01.14191-.55352c.10754-.34791.2279-.68045.35325-1.009.25-.65618.53281-1.2912.81913-1.92225.57739-1.25961 1.17373-2.50424 1.81261-3.72641 1.25575-2.45518 2.59782-4.85948 3.98062-7.24172.7024-1.18536 1.41706-2.36238 2.15451-3.53215.37616-.58726.74426-1.15189 1.19155-1.74511a5.95073 5.95073 0 00.7733-1.69986A56.6991 56.6991 0 00372.57293 185.313z"/><path d="M376.03491,218.91778c-3.9565-6.0996-9.66428-3.42567-9.66428-3.42567s-2.20521,30.29687,11.31282,31.12114c10.28766.6273,19.13969-5.61987,25.36372-12.34721a22.67457,22.67457,0,0,0,5.83137-12.65489c.84474-6.90054,2.11291-17.3254,2.43512-20.33275.49456-4.61591,2.365-16.702,9.067-15.96544,0,0,14.01259.13946,6.759,24.373,0,0-1.97825,15.16657,10.88036,13.35318,0,0-2.63766-7.58329.82427-13.35318s8.01331-13.06443,7.7983-18.072c0,0-45.385-13.41512-50.49549-12.59085a16.62576,16.62576,0,0,1,8.57241,17.80423c-1.50763,9.7996-8.76011,22.95036-12.12546,28.65279a5.83489,5.83489,0,0,1-5.25168,2.87851c-1.949-.07834-4.18512-.36369-5.24907-1.19816C379.9914,225.51194,376.03491,218.91778,376.03491,218.91778Z"/><path d="M375.54975 189.85459a9.0805 9.0805 0 013.24282-1.59039 9.73962 9.73962 0 013.68433-.30735 7.29658 7.29658 0 013.48751 1.38983 6.55005 6.55005 0 012.19785 2.90637 13.307 13.307 0 00-2.77048-2.00012 9.09807 9.09807 0 00-3.0856-.93376 15.28709 15.28709 0 00-3.31407-.0059C377.86636 189.431 376.72756 189.61581 375.54975 189.85459zM414.44587 206.71856c2.2101.86666 4.76754.76882 6.40421-.682a7.717 7.717 0 001.93252-2.63934 18.69708 18.69708 0 001.15479-3.22077 30.05934 30.05934 0 001.12291-6.84741 25.43139 25.43139 0 00-.08746-3.4887 17.10063 17.10063 0 00-.25319-1.73706c-.0515-.29035-.12489-.57309-.202-.858a2.20939 2.20939 0 00-.3453-.80365 4.14329 4.14329 0 01.912 1.55211 14.30935 14.30935 0 01.553 1.73082 18.86329 18.86329 0 01.495 3.60356 23.32382 23.32382 0 01-.87256 7.21733c-.66077 2.27844-1.6217 4.80037-3.76419 6.34181a5.58512 5.58512 0 01-3.62964 1.0316A6.759 6.759 0 01414.44587 206.71856zM398.45362 238.66553a12.03559 12.03559 0 012.22609 1.74931 17.66085 17.66085 0 011.859 2.1012 13.85634 13.85634 0 011.46867 2.424 4.7158 4.7158 0 01.54722 2.8272 11.30274 11.30274 0 00-1.46754-2.27748c-.544-.71613-1.1135-1.41967-1.64847-2.15162-.544-.72674-1.07323-1.47083-1.57972-2.2401A19.169 19.169 0 01398.45362 238.66553zM438.02005 223.0391a42.38181 42.38181 0 012.38331 4.1927c.36084.68941.71794 1.36987 1.11974 2.01827a9.01988 9.01988 0 001.44258 1.8669 3.80891 3.80891 0 01-2.27283-1.18871 7.83716 7.83716 0 01-1.50508-2.05741 10.58364 10.58364 0 01-.88946-2.3376A8.0761 8.0761 0 01438.02005 223.0391z"/><path d="M458.13605,219.5728s-15.89992,1.1616-18.58555,7.50858l.48325.91067,1.77495-.91067c8.53076-4.2468,13.35371,1.39392,7.42491,2.38825-5.93809.985-41.29708,17.18233-41.29708,17.18233-15.33307,4.33971-24.31923,27.6553-24.31923,27.6553,2.47191-1.05939,4.99028-2.00727,7.49-3.02015,2.56476-.82707,5.111-1.7192,7.70369-2.45331a108.32907,108.32907,0,0,1,15.88132-3.22462,83.69627,83.69627,0,0,1,16.2159-.50179c1.34746.14866,2.69492.23232,4.04239.42749,1.32886.23232,2.67632.39028,3.99588.7062a35.13017,35.13017,0,0,1,7.70369,2.46261,43.05218,43.05218,0,0,0-7.85241-1.57048c-1.31956-.20442-2.65772-.26947-3.97727-.39028-1.32886-.08366-2.65772-.13012-3.98658-.19517a111.21506,111.21506,0,0,0-15.91853.90143l-3.95873.51109-3.94012.697-1.97007.32522L403.095,269.41c-1.31026.28807-2.61127.56684-3.92153.83631-2.602.60406-5.18538,1.29171-7.79665,1.91437-2.58341.7062-5.14817,1.48682-7.7595,2.14663-40.21909,6.59784-79.46245,31.3259-82.09232,30.66615-2.63917-.65981-4.95306-21.42913-4.95306-26.77248,0-5.3341-.985-15.43534-8.90249-15.43534-7.9081,0-6.92307,6.92313-6.92307,6.92313,14.84053,3.95873-19.44977,6.93243-29.67182,8.24268-10.22205,1.31956-4.61854-2.62987-4.61854-2.62987s-2.96439-3.16881-6.1425.77132a9.96488,9.96488,0,0,0-1.65414,9.10691c1.01293,3.38258,2.50905,8.51221,3.51269,12.536,1.65408,6.59785,7.58288,54.07459,9.56224,58.69313,1.97937,4.60924,42.85827,16.81065,129.90371,10.54727,7.05318-1.10584,14.07851-2.27668,21.10385-3.44758,7.016-1.1988,14.03212-2.42546,20.99239-3.84722,3.48479-.697,6.96958-1.42182,10.41717-2.24883q5.19936-1.18488,10.315-2.62988a105.91453,105.91453,0,0,0,10.07333-3.38258,31.22747,31.22747,0,0,0,9.19987-5.21323,19.43138,19.43138,0,0,1-4.126,3.41973,42.42259,42.42259,0,0,1-4.70215,2.62987,87.10937,87.10937,0,0,1-10.01763,3.93083,187.23223,187.23223,0,0,1-20.78793,5.31549q-10.524,2.09088-21.1503,3.45689c-7.08115.93858-14.19008,1.62623-21.31762,2.01651,0,0-3.16887,19.264-4.82295,36.595H500.7992c-.13011-16.92211-.158-39.34557.36243-59.5109.985-38.89953,0-57.2063,0-57.2063a29.19319,29.19319,0,0,1-5.25974-1.078c-1.71914-.49248-3.40113-1.07793-5.08312-1.682-3.35473-1.20805-6.62575-2.62051-9.87822-4.07024-3.23392-1.47751-6.43058-3.02015-9.58085-4.68353-3.15026-1.64484-6.26332-3.38259-9.27422-5.29689,3.35473,1.22665,6.635,2.59272,9.89682,3.99593,3.26178,1.38462,6.48634,2.85283,9.72957,4.29326l9.65514,4.42331c3.24317,1.43113,6.412,2.9737,9.79462,4.09815,0,0,16.31811,7.42491,17.80493-11.37435C520.44413,256.66954,502.63915,216.11586,458.13605,219.5728Zm6.84883,61.05353a25.90779,25.90779,0,0,1,4.256,5.22253c.58545.95713,1.0873,1.97007,1.61694,2.9737.45539,1.03149.82707,2.09088,1.25456,3.141a11.1208,11.1208,0,0,1,.48318,1.61693l.42749,1.63554a23.85491,23.85491,0,0,1,.6319,3.30822l.223,1.67269.11151.83631.0372.83638.11151,3.35467.02785.83638-.05575.83631-.12081,1.67275c-.0743,1.11508-.14866,2.22092-.26947,3.32677-.37168,2.19313-.72481,4.38621-1.19875,6.55145-.604,2.13732-1.1895,4.26535-1.85855,6.36552.26947-2.20238.61329-4.36761.95712-6.53284.26023-2.17448.40889-4.35832.65981-6.52349l.0836-3.26177.04651-1.62624.02785-.80846-.05575-.80847-.16727-3.24317-.03715-.80847-.12081-.79922L471.815,298.803a36.69874,36.69874,0,0,0-3.81932-12.23856,29.95892,29.95892,0,0,0-3.66135-5.3062,22.10682,22.10682,0,0,0-4.87871-4.31186A18.2641,18.2641,0,0,1,464.98488,280.62633Zm23.427-37.63573a6.56425,6.56425,0,0,1-3.21526,3.15951,9.99113,9.99113,0,0,1-2.18384.70626,20.72843,20.72843,0,0,1-2.26744.19517c-.75271-.03721-1.51473-.03721-2.25814-.13011l-2.21168-.36243c-.73411-.14866-1.44037-.36238-2.16523-.54825l-2.09088-.56684a26.99564,26.99564,0,0,0-4.15384-.74347,47.6546,47.6546,0,0,0-8.54006-.02785,105.50263,105.50263,0,0,0-17.01506,2.9551c-2.80644.70626-5.61282,1.46827-8.3914,2.29528-2.79708.78992-5.54776,1.7006-8.317,2.62057a109.20169,109.20169,0,0,1,16.32735-6.30977,84.61572,84.61572,0,0,1,17.24744-3.41043,47.43255,47.43255,0,0,1,8.89314.13006,28.64807,28.64807,0,0,1,4.39552.92l4.13529,1.2731,2.07227.446c.697.12081,1.39392.14866,2.09087.24162.697.04645,1.39392-.0093,2.08158-.02791a9.52028,9.52028,0,0,0,1.998-.49248,5.84231,5.84231,0,0,0,3.13166-2.55552,7.36432,7.36432,0,0,0,.81776-1.95151,7.89527,7.89527,0,0,0,.33453-2.13733A8.12264,8.12264,0,0,1,488.41192,242.9906Z"/><path d="M324.60046 403.55427q27.44817-.79624 54.89633-1.06789c9.1495-.1266 18.29889-.15473 27.44828-.2292l27.44816-.07589 27.44817.0722c9.14938.07657 18.29877.101 27.44816.22875q27.44833.26926 54.89644 1.072-27.44815.801-54.89644 1.072c-9.14939.12779-18.29878.15218-27.44816.22875l-27.44817.0722-27.44816-.07589c-9.14939-.07447-18.29878-.1026-27.44828-.22914Q352.04864 404.351 324.60046 403.55427zM378.63139 199.806c3.58767 0 3.59361-5.57566 0-5.57566-3.58768 0-3.59362 5.57566 0 5.57566z"/></svg>