<svg xmlns="http://www.w3.org/2000/svg" data-name="Layer 1" viewBox="0 0 700 550"><path fill="#020202" d="M207.43059,298.06385c6.09068,3.52533,12.294,6.79289,18.5201,9.93764,6.26927,3.07411,12.53246,6.09348,18.89951,8.8759,3.17644,1.40162,6.38084,2.73891,9.57367,4.0879l4.82987,1.9305c1.60887.64444,3.20721,1.31273,4.84087,1.89354,3.256,1.188,6.4695,2.48324,9.74771,3.607,1.629.58993,3.25913,1.17683,4.87806,1.80021.80677.32,1.6284.59508,2.4492.8739l2.45471.86268c13.04789,4.67877,26.35625,9.25251,40.17582,11.601a168.92581,168.92581,0,0,0,41.81838,1.78595,356.081,356.081,0,0,0,41.298-5.5087l5.10086-.96771,1.27449-.24163,1.262-.3083,2.52312-.61543,10.09191-2.41821,9.978-2.84862c1.66045-.4814,3.33376-.91765,5.00029-1.37823,1.66454-.46806,3.28533-1.08349,4.94028-1.58664,3.29808-1.04794,6.5867-2.12559,9.90349-3.13049l1.2408-.38619,1.219-.44912,2.4388-.89823,4.89783-1.75389c6.591-2.19974,12.96462-4.966,19.45108-7.52318,1.61062-.66315,3.25036-1.26711,4.84438-1.97237l4.77595-2.13845c3.17938-1.44115,6.38775-2.83926,9.61192-4.225,1.63156-.6573,3.16756-1.49308,4.75783-2.23459l4.74777-2.279q4.767-2.25822,9.62174-4.4245l.49029.78735q-4.23311,3.1926-8.56667,6.279l-4.34649,3.07271c-1.45027,1.02595-2.89856,2.05869-4.424,2.959-3.01271,1.868-6.04133,3.72393-9.09871,5.53677l-4.57947,2.74242c-1.522.92677-3.141,1.66267-4.7107,2.49985l-9.507,4.879-2.39377,1.19179c-.80923.3724-1.63191.71461-2.44757,1.07344l-4.9073,2.13026c-3.27867,1.407-6.53769,2.87762-9.8794,4.13585-3.355,1.22525-6.73827,2.37775-10.112,3.56-1.69062.58011-3.37434,1.18291-5.08917,1.68723-1.72431.47415-3.44183.97285-5.17221,1.42618-3.45926.90946-6.89909,1.89354-10.3863,2.683-7.03008,1.34945-13.99559,2.98171-21.1114,3.78451l-5.30765.73659-2.65213.36748c-.88794.09357-1.78114.14737-2.67107.22269-3.56358.27041-7.11874.59157-10.67962.79367-3.56253.17848-7.13967.1207-10.701.13193-1.78208-.02035-3.55913.04538-5.33957-.04678l-5.335-.26713c-14.2094-.69707-28.28032-2.07927-42.30808-3.90428-14.00788-1.81-28.20733-3.51527-42.03241-7.17253-3.47153-.84888-6.86645-1.95389-10.25062-3.09165-3.40592-1.07788-6.70482-2.45354-10.02255-3.76861q-2.49647-.967-4.92917-2.08933L251.243,328.1818c-1.61857-.75017-3.20252-1.57729-4.80391-2.36184-1.596-.79648-3.20182-1.57-4.756-2.45026a181.73532,181.73532,0,0,1-18.2546-11.12406c-2.94464-2.00231-5.78846-4.15526-8.57942-6.36436a94.94643,94.94643,0,0,1-7.99954-7.0944Z"/><path d="M335.70323 252.99008c-.23953-2.57728-.37356-5.145-.47906-7.72224-.07649-2.56792-.12444-5.14519-.067-7.73206.05743-2.57751.17252-5.15478.47906-7.74165l-4.79058 13.34649c.80479 5.38472 3.775 12.78135 5.86367 17.53356C336.23983 258.11609 335.93317 255.5484 335.70323 252.99008zm64.692 173.72558c-.31613-3.17142-.55566-6.34284-.93893-9.50443l-1.05391-9.50443-1.18805-9.4759c-1.64793-12.63749-3.31516-25.26562-5.17385-37.87433-1.72465-12.6279-3.63129-25.227-5.442-37.84557l-2.74031-18.92278-2.13658-15.23395c-.30655 2.69213-.62268 5.38449-.9773 8.06726-.64186 4.963-1.35086 9.91636-2.25143 14.86038l13.8735 122.61962a44.08528 44.08528 0 018.05766-6.84108zm.345 4.76181c-.06714-1.01543-.12468-2.03109-.20117-3.04674a71.047 71.047 0 00-8.17275 5.4708l1.06337 9.41835a49.71893 49.71893 0 017.61709-7.071zm18.415-149.42767l-6.24693-39.072s10.932-26.87519-6.81219-54.89048h-.00959a135.70069 135.70069 0 01-22.851 1.629 56.68052 56.68052 0 016.16061 12.51281 53.96832 53.96832 0 012.97985 13.73946 44.81322 44.81322 0 01-.08632 7.08037 35.04328 35.04328 0 01-1.48512 6.94634 29.36111 29.36111 0 01-3.04675 6.3812 28.14894 28.14894 0 01-4.52227 5.33677 38.89751 38.89751 0 003.7079-5.80624 33.93135 33.93135 0 002.42394-6.34283 40.33168 40.33168 0 001.121-6.678 47.15755 47.15755 0 00-.01906-6.78354 53.94959 53.94959 0 00-.91028-6.75476c-.40246-2.24184-.96771-4.45514-1.58092-6.66844a100.63872 100.63872 0 00-4.74262-12.9631c-1.08268-.048-2.13658-.11509-3.15224-.211-13.02076-1.26455-26.52058 1.5043-26.52058 1.5043l-17.476 37.51973-.4504 1.26477c.48865 2.55833.7856 5.126 1.01554 7.70329.24912 2.56768.3738 5.145.48865 7.72247.06713 2.57727.11509 5.15455.05754 7.73206-.048 2.57727-.17239 5.15455-.47905 7.73182v.01918c1.24559 2.79763 2.17494 4.67549 2.17494 4.67549s.49824 7.69393-.92935 11.7561l4.27316 41.13207c.78572 6.84085 1.45636 13.70087 2.44324 20.4844.24912 1.71507.55567 3.34382.86221 5.06847.32585 1.72466.54619 3.43972.78572 5.15455.45029 3.43013.83356 6.86026 1.19765 10.29039q1.94014 20.60883 3.2575 41.24669c.6325 11.23867 1.37027 22.47735 1.59062 33.73521 1.42758.17263 2.84557.31625 4.27316.41216a61.30339 61.30339 0 006.36178.12444 56.02691 56.02691 0 006.33325-.49824 53.23387 53.23387 0 0012.37878-3.23832c-.90057-21.95993-3.76533-94.7959-3.22873-119.76445.11485-5.02051.40233-10.01226.76642-15.00424.3545-4.99174.81438-9.9739 1.303-14.95605.51742-4.97256 1.06349-9.94513 1.71506-14.90834.64186-4.963 1.35086-9.91635 2.25155-14.85079-.10538 5.01093-.40245 10.0125-.76642 15.00424-.345 4.99175-.8145 9.96431-1.29355 14.94647-.22035 2.0409-.4407 4.09117-.67064 6.13208 1.03472 5.26 1.99284 10.52968 2.97973 15.78972l3.2768 18.84606c2.11739 12.57995 3.99526 25.1889 5.88272 37.80721.85286 6.32365 1.71507 12.63748 2.50079 18.97073.41192 3.16183.81425 6.32342 1.17846 9.49484.38315 3.16183.74736 6.33325 1.06349 9.50467.96759 9.5332 1.87787 19.10477 2.22278 28.68592.8911-.575 1.79179-1.13051 2.71154-1.65752a46.3526 46.3526 0 016.54389-3.0851 41.85933 41.85933 0 017.01336-1.897 31.80217 31.80217 0 0114.458.7663 32.34875 32.34875 0 0112.44592 7.06143C440.684 402.84909 430.13516 328.04894 419.15519 282.0498zm-27.613-38.26708c-2.09821.02877-4.206.04795-6.26611.22993-2.0119.1724-4.17725.5366-6.29465.709a90.38806 90.38806 0 01-12.78135.22994 73.84018 73.84018 0 01-12.64708-1.64793q6.36658.2442 12.67585.15321c2.10781-.048 4.206-.07672 6.30436-.20117 2.09834-.10526 4.19655-.22034 6.28518-.44069 2.09833-.13427 4.11994-.47906 6.33325-.60374a59.85131 59.85131 0 016.42891.07673 93.42271 93.42271 0 0112.64708 1.64793C399.9737 243.87839 395.74849 243.75394 391.54223 243.78272zm-35.019 192.7824c-1.37975-.1055-2.7402-.25871-4.11036-.4407.02878 1.90664.03837 3.81328.03837 5.71033-.09579-1.91623-.21088-3.83246-.32573-5.75828-.709-.09591-1.4084-.182-2.10792-.30666-2.14617-.40234-4.27316-.86221-6.36191-1.466a56.36061 56.36061 0 01-12.06264-4.85748c-.05743 4.90544-.0862 7.94282-.0862 7.94282s27.929 13.34649 50.48306 0c0 0-.09579-2.3188-.2683-6.34284a36.30431 36.30431 0 01-12.12007 4.71386A49.51776 49.51776 0 01356.52318 436.56512zm-4.532-2.36652q-.431-6.496-.99636-12.98251l-1.6767-20.59949c-1.17846-13.72987-2.25155-27.4691-3.69831-41.16061-.33544-3.42053-.68982-6.84084-1.10186-10.25179-.22994-1.69588-.43122-3.40135-.73777-5.06847-.27777-1.66711-.594-3.43012-.824-5.1356q-1.36524-10.29-2.18453-20.58989-.86228-10.31882-1.59039-20.62826c-.43122-6.8792-.8911-13.75841-1.21683-20.64744a3.43746 3.43746 0 01-1.87787 2.37611c-3.65047 1.11156-3.81328-8.57485-4.29234-9.84922-.46958-1.26478-3.48767-3.65048-3.48767-3.65048l-1.5712 7.70329a3.98283 3.98283 0 00.93893 2.17494l2.85517 3.30545c2.702 5.87337-2.06957 5.08765-2.06957 5.08765a15.2774 15.2774 0 01-.15333 4.28275s8.25907 61.47261 6.03618 69.08958c-1.763 6.065-2.51985 52.84022-2.74979 71.79177a114.745 114.745 0 0012.41726 3.411Q347.97669 433.69066 351.99119 434.1986zm92.0846-6.26611a41.61736 41.61736 0 00-12.82919-5.61443 35.13771 35.13771 0 00-13.75852-.32584 48.17443 48.17443 0 00-13.17409 4.40719c-1.1401.56537-2.26126 1.16911-3.37259 1.79179.0862 2.68277.13415 5.37489.10538 8.05767 9.32245-7.07079 26.11824-14.90811 44.15952.19157C445.2063 436.44044 444.804 433.34575 444.07579 427.93249zM353.45585 78.49912a15.89675 15.89675 0 00-2.76616 5.74518 13.17975 13.17975 0 00-.39321 3.07786 19.99154 19.99154 0 00.13883 3.15387l.01637.13287a6.254 6.254 0 01-1.1077 2.82616 5.66478 5.66478 0 01-1.01882 1.09168 4.52258 4.52258 0 00-.88162.98969 3.34374 3.34374 0 00-.56935 2.42921 1.97076 1.97076 0 001.52886 1.45588l.11416.03392.13286.1324a11.17734 11.17734 0 012.8278 4.5045 7.1886 7.1886 0 01.2835 1.39483c.05895.528.02363.85356.06667 1.24045a5.45087 5.45087 0 00.49122 1.99974 4.57038 4.57038 0 003.49644 2.03764 29.43059 29.43059 0 004.87584.31882l.02749.1745a15.90521 15.90521 0 01-5.03923.80748 7.31226 7.31226 0 01-2.67809-.52327 4.56581 4.56581 0 01-2.26477-1.91413 5.989 5.989 0 01-.786-2.76511 11.40188 11.40188 0 00-.18117-2.29727 11.67531 11.67531 0 00-2.10465-4.04814l.24678.16608a3.75673 3.75673 0 01-1.3353-1.02688 2.88049 2.88049 0 01-.589-1.58384 3.47063 3.47063 0 01.27567-1.54431 5.52217 5.52217 0 01.71741-1.31039 6.25415 6.25415 0 011.00233-1.08934 3.70227 3.70227 0 00.83484-1.01075 4.58649 4.58649 0 00.53988-2.48955l.01626.13239a11.11673 11.11673 0 01-.64421-3.429 10.53166 10.53166 0 01.54315-3.47785 10.8049 10.8049 0 011.59343-3.10147 9.30911 9.30911 0 012.47576-2.36886z"/><path d="M352.7637,75.255s2.54131,13.18305,12.07123,13.65955c0,0,5.24145-4.60613,6.9886,0s-2.06481,10.80057-4.28846,9.37108c0,0-11.62634,8.73576-5.019,17.63035s9.40309,9.37109,9.75236,15.72437,16.55014,8.4181,19.25028,4.12963,6.82978-18.58334,3.01781-31.92523-3.9708-16.67736-4.92379-19.854-3.54132-15.72436-15.192-12.70655A155.4163,155.4163,0,0,1,352.7637,75.255Z"/><path d="M350.85776 89.07348a4.99768 4.99768 0 011.475-.73777 6.47542 6.47542 0 011.61951-.31672 4.95016 4.95016 0 011.67354.163 2.70431 2.70431 0 011.42642.89145 9.47325 9.47325 0 00-3.04546-.17427C352.98989 88.9481 351.97143 89.08517 350.85776 89.07348zM354.19318 93.57366a1.32439 1.32439 0 000-2.6472 1.32439 1.32439 0 000 2.6472zM349.85777 102.45061a4.09669 4.09669 0 013.69773 0 3.68548 3.68548 0 01-1.84489.44093A3.76748 3.76748 0 01349.85777 102.45061zM367.6939 96.7503a1.32439 1.32439 0 000-2.6472 1.32439 1.32439 0 000 2.6472zM358.41169 146.72392q.43017 5.35643.46315 10.74091c.019 3.58591-.07181 7.177-.34034 10.75821q-.403 5.37151-1.23975 10.70606c-.2883 1.77518-.61368 3.54521-.99028 5.30706-.38573 1.76068-.89052 3.50989-1.33273 5.26753l-.005.02012-.02176.04725-9.04818 19.65587q-4.5138 9.8325-9.11835 19.62266l.02643-.06433c-1.77085 4.86239-3.5058 9.73764-5.31958 14.58436l.03252-.32865a42.39651 42.39651 0 001.29741 5.68156c.54139 1.88114 1.19448 3.73656 1.87085 5.58238 1.36934 3.6858 2.91575 7.32341 4.592 10.88079l.0407.08655.00316.07672a52.37029 52.37029 0 01-.23321 8.02328 17.84309 17.84309 0 01-.84443 3.96627 5.27525 5.27525 0 01-1.05169 1.83132 2.25392 2.25392 0 01-2.10862.69449 2.779 2.779 0 01-1.631-1.45285 9.29428 9.29428 0 01-.74994-1.91623 28.80722 28.80722 0 01-.74466-3.95246l-.25392-1.9726a3.59239 3.59239 0 00-.19883-.89707 3.51063 3.51063 0 00-.5097-.76724 21.34242 21.34242 0 00-2.86358-2.67575l.44408-.16234-1.54617 7.708-.00351.01754-.00772.02316a3.67 3.67 0 00-.15825.60537.52058.52058 0 00-.00608.09567c.0062.01263-.01368-.03976-.012-.03462l.02315.03135a1.98833 1.98833 0 00.20351.20654l.01579.014.01345.01567 3.67527 4.23246.033.03813.01638.03859a13.27525 13.27525 0 01.65122 1.75577 4.43025 4.43025 0 01.16736 1.94266 2.15 2.15 0 01-1.247 1.64559 3.75416 3.75416 0 01-1.99366.24748l.43322-.44748a9.52334 9.52334 0 01.10865 2.24535 21.161 21.161 0 01-.22924 2.18945l-.01415.09029-.04409.06012a2.21547 2.21547 0 01-1.12864.9546 2.0716 2.0716 0 01-1.493-.18526 6.97314 6.97314 0 01-1.93542-1.71436 26.36133 26.36133 0 01-2.68569-4.13187 53.02817 53.02817 0 01-3.84849-8.99169c-.12011-.39485-.23075-.79578-.329-1.2063a10.24831 10.24831 0 01-.20152-1.26244c-.08608-.77847-.2173-1.56723-.35777-2.35412-.28327-1.57519-.61309-3.1506-.94724-4.72859-.33075-1.58127-.681-3.15271-.96677-4.7714-.07029-.40678-.13485-.81613-.178-1.25683-.01707-.22011-.01508-.44935-.02152-.67344l.02047-.62619c.03626-.82689.0986-1.636.164-2.44605.2779-3.232.61064-6.44388.95929-9.653l.49742-4.80672c.13813-1.56536.26269-3.25867.52116-4.85491.95379-6.41371 2.1898-12.764 3.13294-19.10991l-.00935.13029v-.00866l-.00024-.04491.00971-.08678.20351-1.81822c.03625-.28257.07426-.7511.1366-1.04186.06012-.32233.1138-.654.18234-.96513.2566-1.26665.54327-2.50453.838-3.74638.59636-2.47763 1.22127-4.94216 1.85272-7.40505q1.89735-7.38762 3.88849-14.74459c1.29741-4.90426 2.74288-9.81484 4.125-14.7198L332.14 168.864a23.58253 23.58253 0 00.63871-3.58194c.30011-2.4926.49835-5.01888.67355-7.54376.33251-5.05116.574-10.12922.68432-15.18318a33.3411 33.3411 0 012.90909-15.06787 28.58609 28.58609 0 014.24239-6.45277 14.78675 14.78675 0 011.329-1.41051 12.32607 12.32607 0 011.47308-1.27835 16.06255 16.06255 0 013.35727-1.95319 20.12321 20.12321 0 017.51849-1.53986 25.89935 25.89935 0 017.575.97894l-.05169.16888a22.80552 22.80552 0 00-14.77126.99321 16.29756 16.29756 0 00-5.76729 4.603 27.62657 27.62657 0 00-3.96486 6.3246 27.26491 27.26491 0 00-2.09529 7.14516 44.03891 44.03891 0 00-.40316 7.49955c-.04315 5.10355-.21684 10.17834-.48315 15.26739-.14257 2.54406-.307 5.08625-.57976 7.64083a24.38826 24.38826 0 01-.65964 3.91621l-1.00946 3.67808c-1.34781 4.87993-2.7651 9.71729-4.05 14.63839q-1.95734 7.3585-3.84053 14.73477c-.62292 2.45892-1.23928 4.9197-1.82454 7.38213-.2876 1.22992-.5925 2.46218-.84619 3.68369-.0704.30853-.11929.60373-.17824.905-.06573.33145-.07333.49847-.12082.84466l-.23309 1.96606.00947-.131v.00866l-.00035.072-.00912.05824c-1.004 6.4212-2.28441 12.743-3.27738 19.09611l-2.1753 19.20044c-.07754.79765-.15169 1.59741-.19894 2.38266l-.02889.58362c.00433.17894-.003.35415.00772.53637.02982.36327.083.75274.14433 1.1422.24982 1.56536.57543 3.15177.88022 4.73561.30888 1.58548.61531 3.17586.87741 4.78286.12994.8042.25134 1.61074.32959 2.43833a8.779 8.779 0 00.16011 1.12981c.08374.37613.1814.75508.28994 1.134a52.03761 52.03761 0 003.62147 8.84994 25.67351 25.67351 0 002.51459 4.02146 6.21257 6.21257 0 001.6291 1.51881 1.23 1.23 0 00.841.1455c.25473-.05217.4711-.32093.67625-.58479l-.05813.14994a20.42391 20.42391 0 00.25532-2.091 8.83777 8.83777 0 00-.05825-2.05073l-.09005-.516.52338.06831a3.05214 3.05214 0 001.57343-.16327 1.42512 1.42512 0 00.86081-1.11087 3.79077 3.79077 0 00-.126-1.64606 12.30661 12.30661 0 00-.60081-1.65331l.04912.07626-3.64837-4.25585.029.02924a2.528 2.528 0 01-.27625-.28631.891.891 0 01-.07521-.10971.51164.51164 0 01-.06316-.19742 1.02035 1.02035 0 01.00878-.24748 4.17242 4.17242 0 01.19157-.72491l-.01123.04024 1.59519-7.69838.09333-.45075.35076.28842a21.77488 21.77488 0 012.92931 2.7754 4.07986 4.07986 0 01.59075.88536 3.99892 3.99892 0 01.24784 1.03555l.27146 1.97611a28.26859 28.26859 0 00.76057 3.86381 8.71111 8.71111 0 00.71122 1.77985 2.19125 2.19125 0 001.24326 1.141 1.619 1.619 0 001.49389-.52911 4.66569 4.66569 0 00.89531-1.61121 17.21855 17.21855 0 00.77461-3.81562 49.74137 49.74137 0 00.06971-7.89065l.04386.1628c-1.77015-3.55761-3.39914-7.169-4.86181-10.86488-.72186-1.851-1.42138-3.7134-2.01354-5.62027a43.598 43.598 0 01-1.45927-5.8425l-.0262-.15812.05883-.171c1.68032-4.89467 3.43972-9.76127 5.16308-14.6405l.0103-.029.01625-.03556q4.50784-9.83494 9.14982-19.60745l9.215-19.57681-.02666.06713c.46174-1.70524.98618-3.38779 1.40161-5.11572.40631-1.73073.76327-3.4755 1.08385-5.22753q.94227-5.26028 1.442-10.59634c.33684-3.552.56865-7.11757.65215-10.68992.08433-3.57188.04877-7.1482-.078-10.72453z"/><path d="M347.59277 116.67357a14.10989 14.10989 0 019.85273 4.62871 23.79111 23.79111 0 015.325 9.77928l.67426 2.70452.41555 2.74219c.05789.45847.13661.91367.177 1.37378l.07462 1.38571c.05438.9228.09274 1.84536.12432 2.76558a15.28515 15.28515 0 01-1.19682 5.50449 4.70152 4.70152 0 01-1.834 2.22359 2.40065 2.40065 0 01-1.429.27275 3.79574 3.79574 0 01-1.30653-.46526 2.61605 2.61605 0 002.47494-.22152 4.21618 4.21618 0 001.28793-2.126 12.87961 12.87961 0 00.51532-2.56371 15.715 15.715 0 00.1111-2.60394c-.10608-.88888-.20526-1.77518-.28841-2.66148l-.13181-1.3277c-.059-.44093-.15626-.87742-.23228-1.31578l-.45017-2.63107-.68069-2.567a26.02354 26.02354 0 00-4.65058-9.35146A15.92422 15.92422 0 00347.59277 116.67357zM357.84643 115.11991a16.96306 16.96306 0 013.15061 2.49166 34.20315 34.20315 0 012.716 2.98709 42.17351 42.17351 0 014.3762 6.79453 60.30142 60.30142 0 013.22966 7.41908c.4421 1.2739.82865 2.566 1.24548 3.84954l1.03671 3.90872-.74841-.65426c2.46476.19391 4.96649.30572 7.4523.35812 2.489.04211 4.97794.06573 7.458-.03766a66.67779 66.67779 0 007.37884-.66572 26.10382 26.10382 0 003.56533-.78923 11.61117 11.61117 0 003.20967-1.42735l-.27462.57216c-.04795-1.61659-.22046-3.27084-.42362-4.89888a40.88072 40.88072 0 00-.91753-4.84532 21.74947 21.74947 0 00-1.62816-4.6404 10.89146 10.89146 0 00-2.99072-3.88439 10.19831 10.19831 0 013.39223 3.66614 22.38109 22.38109 0 012.0374 4.62427 38.71759 38.71759 0 011.22642 4.90075 44.89558 44.89558 0 01.65812 5.02379l.02655.35579-.30129.2166a17.85269 17.85269 0 01-7.30925 2.69377 55.459 55.459 0 01-7.57452.81355 115.207 115.207 0 01-15.13722-.35134l-.60315-.05029-.14561-.6042-.92829-3.854c-.37789-1.26431-.72561-2.54009-1.12794-3.79738a63.03276 63.03276 0 00-2.86944-7.37581 48.27585 48.27585 0 00-3.86451-6.91125 33.73553 33.73553 0 00-2.43774-3.13469A19.69654 19.69654 0 00357.84643 115.11991z"/><path d="M396.0451,113.43572a37.59981,37.59981,0,0,1,20.858,8.45439,35.25151,35.25151,0,0,1,7.45662,8.7276,36.95239,36.95239,0,0,1,4.289,10.63938c1.66372,7.50095,1.57039,15.11582,1.37015,22.6411-.21508,7.53931-.74946,15.06015-1.42115,22.57186-.669,7.51241-1.59763,15.0019-2.74,22.45489q-.84805,5.59116-1.787,11.16617l-.96022,5.56577-.47111,2.77025c-.07356.44912-.14865.94011-.18842,1.32092a2.81313,2.81313,0,0,0-.0007.58877c.00468.20537.02328.43157.04585.66221.355,3.67808.95227,7.42657,1.42,11.15423.4773,3.7396.99016,7.4654,1.3153,11.25739a37.4682,37.4682,0,0,1-.07906,5.73186,54.51821,54.51821,0,0,1-.67554,5.65957,25.86142,25.86142,0,0,1-1.53928,5.50261,8.5263,8.5263,0,0,1-3.52826,4.41491l-.084-.15508a8.44929,8.44929,0,0,0,3.081-4.4652,28.19163,28.19163,0,0,0,1.18817-5.43338,53.52674,53.52674,0,0,0,.4049-5.57794,43.35255,43.35255,0,0,0-.14233-5.5522c-.88385-7.43546-2.36172-14.8019-3.23563-22.36859-.02608-.23765-.05029-.48-.06035-.74548a4.40577,4.40577,0,0,1,.00585-.81987c.05789-.55508.13192-.99438.20947-1.47414l.48081-2.79622,1.00186-5.55781q1.01805-5.55045,1.95939-11.111c1.24091-7.417,2.41505-14.84425,3.4189-22.29935a196.89579,196.89579,0,0,0,1.80945-22.47759,106.74545,106.74545,0,0,0-.39684-11.25154,64.85868,64.85868,0,0,0-1.82512-11.01622,41.75062,41.75062,0,0,0-4.197-10.209,33.79551,33.79551,0,0,0-7.00587-8.49088,38.16611,38.16611,0,0,0-9.30748-6.01489,41.24629,41.24629,0,0,0-10.68242-3.29165Z"/><path d="M401.17672 114.41863a21.724 21.724 0 012.89657 3.73913c.435.66245.80163 1.36162 1.19963 2.04722.34538.709.72362 1.40677 1.04291 2.12863a61.63816 61.63816 0 013.23247 8.89532q.65017 2.27751 1.129 4.60485a27.30686 27.30686 0 01.64421 4.7728c.05789 3.18545-.15544 6.30564-.4062 9.43472-.249 3.12581-.55017 6.2446-.87367 9.36058-.31766 3.109-.56935 6.25348-1.02116 9.33437a19.82294 19.82294 0 00.65005 4.54754c.35123 1.51694.75052 3.02522 1.17168 4.52789.83181 3.007 1.7877 5.98682 2.72453 8.95754l.23134.73356-.76011.13871-6.82423 1.24373-.04246.00772-.07462.0007-.00865.00023.11555-.00842c-4.36111.67157-8.744 1.23507-13.15912 1.56442a74.75611 74.75611 0 01-13.31619-.09567 90.23676 90.23676 0 00-13.05374-.37683c-4.3693.15836-8.74514.53028-13.09807 1.11717l-.03555-.17286a89.94214 89.94214 0 0113.05783-2.13073 81.51931 81.51931 0 0113.292-.17216 90.21787 90.21787 0 0013.02812-.04211c4.35643-.26385 8.71357-.706 13.05327-1.28723l.06632-.00889.04959.00047h.00865l-.11672.00865 6.79967-.99741-.52864.8718c-.83508-3.02967-1.56443-6.07664-2.26582-9.13578-.34994-1.5291-.67274-3.06569-.95741-4.61187a22.12294 22.12294 0 01-.55649-4.73373 155.00715 155.00715 0 001.19051-18.70478c.05146-3.119.12269-6.25418.08012-9.32572a49.58309 49.58309 0 00-1.57554-9.05485 78.16743 78.16743 0 00-2.77376-8.87192 32.48768 32.48768 0 00-4.347-8.18866zM341.76373 440.9543c-.77812 5.20344-3.5472 9.94747-7.067 13.86624a40.13038 40.13038 0 01-12.892 9.06748 60.50628 60.50628 0 01-7.38282 2.767c-2.45821.74549-4.91233 1.4884-7.35148 2.273-2.42464.8028-4.87256 1.58314-7.19651 2.59108a28.01089 28.01089 0 00-3.36159 1.66922l-.75672.50268c-.21485.18526-.457.36678-.64583.55859l-.25556.29239c-.0621.0952-.09625.182-.15871.27111-.04889.13824.002.22713-.0462.2138l-.17929-.08375a65.062 65.062 0 0024.206 1.9953 50.54608 50.54608 0 0011.786-2.72 44.81245 44.81245 0 005.47057-2.44371 38.50065 38.50065 0 004.97607-3.25376l.0379-.02877.05216-.03345 5.05806-3.236 1.91319-1.22408.0269 2.30079.1338 11.459-1.40244-1.40256c3.44124-.004 6.8826-.02783 10.324-.0014 3.44135.04257 6.88259.04421 10.32395.12046l-1.28115 1.363c-.2131-5.82472-.49333-11.64078-.58093-17.46971-.048-2.91411-.10433-5.82752-.10655-8.744.04047-2.91786-.00842-5.83244.25988-8.76012l.26409.01778c.09988 2.89259.35859 5.79828.607 8.696l.718 8.7c.5152 5.79758.90443 11.605 1.401 17.40093l.114 1.33238-1.39542.03088c-3.44136.07626-6.8826.07789-10.32395.12047-3.44136.0262-6.88272.00257-10.324-.00141l-1.419-.00187.01626-1.40091.13391-11.459 1.93986 1.07671-5.1321 3.11692.08983-.06176a38.17022 38.17022 0 01-11.30324 5.55923 54.9108 54.9108 0 01-12.27855 2.094 87.647 87.647 0 01-12.36766-.20725 96.24346 96.24346 0 01-12.25025-1.79693l-.09789-.02129-.08175-.06269a1.43465 1.43465 0 01-.46853-1.55881 5.23211 5.23211 0 01.275-.59227l.34678-.46525c.24339-.28421.5069-.512.76607-.76187l.816-.62642a28.8092 28.8092 0 013.44322-2.00933c2.34734-1.19811 4.76859-2.15786 7.19254-3.12066l3.67655-1.3029 3.71247-1.17168a73.61131 73.61131 0 007.13674-2.5864 42.53787 42.53787 0 0012.61749-8.15334 29.47476 29.47476 0 008.01-12.73176z"/><path d="M365.97506 451.69239s-2.09312-2.2292-21.92886 9.52437-29.40218 4.12963-29.40218 4.12963c-24.46013 7.30627-20.33049 10.16525-20.33049 10.16525s28.88218 7.9416 47.31931-6.03562l5.09524-3.17664v11.4592h20.64816S365.6618 456.052 365.968 451.5238M413.78287 429.41738a38.46348 38.46348 0 011.24969 7.40294 31.79874 31.79874 0 01-.27275 7.58282 20.34973 20.34973 0 01-2.58511 7.30259 15.59576 15.59576 0 01-2.49517 3.10312 14.8127 14.8127 0 01-3.26089 2.32792 22.89494 22.89494 0 01-7.471 2.13915c-2.46944.37847-4.94543.74362-7.43861.96186-2.48617.2559-4.99877.36-7.46341.47695-.61309.03251-1.22361.06807-1.80278.13076a3.53338 3.53338 0 00-1.32689.31789c-.06011.0393-.08467.05076-.11368.255a2.24316 2.24316 0 00.05509.6856 4.7535 4.7535 0 00.76525 1.34665 25.38737 25.38737 0 005.28028 4.96835 31.364 31.364 0 006.39617 3.59107 22.25589 22.25589 0 007.08751 1.665 16.06684 16.06684 0 003.6072-.18292 15.16525 15.16525 0 003.424-1.03928c.555-.21544 1.06057-.54128 1.5905-.80537.48865-.34152 1.01-.62853 1.46934-1.00818a14.13533 14.13533 0 001.34957-1.16442c.42619-.40725.84478-.82947 1.298-1.30057a22.7667 22.7667 0 012.92792-2.53307 16.7148 16.7148 0 013.4672-1.92348 5.09112 5.09112 0 011.14186-.29777c.11964-.01123.25064-.015.37566-.01755a3.23485 3.23485 0 01.45462.05731 1.85607 1.85607 0 01.54865.24538 1.506 1.506 0 01.4656.4842 2.02669 2.02669 0 01.27977.87835c.01918.17146.04795.36023.0566.51649l.06491.9677c.0655 1.27063.09006 2.51786.10971 3.76791.02 2.498-.00912 4.98238-.04912 7.47709l-1.27168-1.31063 9.52981-.1097c3.17657-.047 6.35325-.02059 9.52981-.03462l-1.396 1.17612c.44771-2.75154.832-5.58121 1.09566-8.38819.25438-2.814.47519-5.63127.51215-8.44386a46.11345 46.11345 0 00-.54689-8.34188 20.318 20.318 0 00-1.076-3.9169 7.3198 7.3198 0 00-2.19155-3.10218l-.255-.19415-.0517-.23953c-.26175-1.211-.45263-2.38687-.62058-3.58475-.17227-1.19249-.28315-2.392-.366-3.59129a53.53745 53.53745 0 01-.05462-7.19265l.26468.00187a67.63616 67.63616 0 00.75847 7.07826c.18549 1.16935.42023 2.32956.654 3.48581.24012 1.15062.51251 2.31482.82947 3.41656l-.30655-.43345a8.91639 8.91639 0 012.981 3.60791 18.92567 18.92567 0 011.44513 4.26286 48.24828 48.24828 0 01.94 8.72667 82.2499 82.2499 0 01-.22842 8.69157c-.22959 2.89073-.5221 5.74449-.99122 8.63825l-.19145 1.1815-1.20467-.00514c-3.17656-.014-6.35324.0124-9.52981-.03462l-9.52981-.10971-1.32419-.0152.05216-1.29566c.09941-2.4678.17579-4.9473.22631-7.4137.03041-1.232.05521-2.46757.04152-3.67808l-.02339-.89168c-.00245-.15415-.0193-.27274-.0276-.41029-.013-.19438-.0269-.12912.044-.01005.0828.10783.22257.21379.28128.20023-.00269.00772.00783.0021-.00632-.00187a.67943.67943 0 01-.08924-.00117 3.13194 3.13194 0 00-.66034.152 17.42318 17.42318 0 00-3.10732 1.54056 21.01185 21.01185 0 00-2.83587 2.16816 18.77559 18.77559 0 01-6.38436 4.22146 17.16092 17.16092 0 01-7.55943.98151 25.1394 25.1394 0 01-7.32493-1.828 37.71155 37.71155 0 01-6.64576-3.53843 29.84836 29.84836 0 01-5.82109-4.88976 5.79646 5.79646 0 01-1.1415-1.82477 3.67206 3.67206 0 01-.1662-1.15391 1.90263 1.90263 0 01.59953-1.40325 2.94337 2.94337 0 011.1532-.60467 9.016 9.016 0 011.01074-.22971c.6497-.11251 1.276-.18783 1.89939-.26128 2.48406-.27578 4.92192-.55789 7.36867-.86548 2.44091-.33146 4.88368-.64935 7.31663-1.05262a20.6615 20.6615 0 006.81266-1.7967 13.84449 13.84449 0 002.84089-1.89963 13.51948 13.51948 0 002.24886-2.60768 19.16766 19.16766 0 002.677-6.53254 41.79818 41.79818 0 00.37274-14.6115z"/><path d="M437.58 444.69823s-9.52992-6.9886-16.51853 3.812-20.01283 9.21226-20.01283 9.21226c-18.42451 3.17664-21.60115.953-20.96582 4.44729.61264 3.36951 20.08619 20.1217 33.03287 7.17122a21.57711 21.57711 0 014.33843-3.46648c1.90483-1.10985 4.0675-2.072 4.24268-.84576.31766 2.22365 0 12.72985 0 12.72985h19.05984S445.52158 450.09852 437.58 444.69823zM328.18871 284.624l-2.58745-2.18664-1.29378-1.09308a10.08348 10.08348 0 01-1.26466-1.18127 6.26489 6.26489 0 01-1.42069-3.12721 8.65886 8.65886 0 01-.04467-1.70664l.0552-1.69308.05509 1.69308a8.499 8.499 0 00.15146 1.66734 5.93389 5.93389 0 001.5305 2.87014 9.62242 9.62242 0 001.27987 1.0449l1.3622 1.00677 2.72429 2.01354zM327.8783 265.89469a18.19854 18.19854 0 00.57672-3.60275 19.90753 19.90753 0 00-.0966-3.69165 17.688 17.688 0 00-.78327-3.62451 18.70738 18.70738 0 00-1.49518-3.41726 18.828 18.828 0 011.703 3.34334 18.02177 18.02177 0 011.012 3.63457 20.46251 20.46251 0 01.3214 3.77866 18.83858 18.83858 0 01-.3876 3.81469z"/><circle cx="207.14" cy="294.249" r="12.374" fill="#020202"/><circle cx="524.843" cy="294.249" r="12.374" fill="#020202"/><path fill="#020202" d="M207.14007 289.59823c.73028 15.63137 1.11226 31.2625 1.37191 46.89387.16257 7.8158.19871 15.63136.29438 23.44693l.09743 23.44716-.09275 23.44694c-.09836 7.81556-.12971 15.63136-.2938 23.44693-.25859 15.63136-.64256 31.26273-1.37717 46.8941-.73473-15.63137-1.1187-31.26274-1.37718-46.8941-.16421-7.81557-.19555-15.63137-.29391-23.44693l-.09263-23.44694.09742-23.44716c.09567-7.81557.13181-15.63113.29439-23.44693C206.02768 320.86073 206.40978 305.2296 207.14007 289.59823zM524.84322 289.59823c.73029 15.63137 1.11239 31.2625 1.37192 46.89387.16257 7.8158.19871 15.63136.29438 23.44693l.09742 23.44716-.09263 23.44694c-.09836 7.81556-.1297 15.63136-.29391 23.44693-.25859 15.63136-.64245 31.26273-1.37718 46.8941-.73472-15.63137-1.11858-31.26274-1.37717-46.8941-.16409-7.81557-.19544-15.63137-.29391-23.44693l-.09263-23.44694.09742-23.44716c.09567-7.81557.13181-15.63113.29438-23.44693C523.73084 320.86073 524.11294 305.2296 524.84322 289.59823z"/><path fill="#020202" d="M191.46571 477.174s14.0244-26.48129 30.93618 0zM509.37515 477.174s14.0244-26.48129 30.93618 0zM286.0273 217.22027l-30.82216.59976-31.18636.473q-15.66609.17929-31.40752.26433c-10.48384.06386-20.98708.07976-31.4694-.01334l-1.45319-.01309.00994-1.43016c.07731-11.16733.30222-22.33467.44993-33.502.17006-11.16733.35941-22.33467.4345-33.502l.04515-16.75088-.07533-16.75112c-.00912-11.16733-.22-22.33443-.336-33.50177l-.00948-.91343.93449-.0117c10.39717-.131 20.79434-.328 31.19151-.40467l31.19139-.24725 31.1915-.16538c10.39717-.07719 20.79434-.0524 31.19139-.0662l1.8181-.00257-.00947 1.8112-.17707 33.81311-.39076 33.70457c-.10748 11.227-.36362 22.35245-.51906 33.47861zm-.239-.23906l-.6021-33.87276c-.15555-11.20873-.41169-22.41794-.51917-33.52562l-.39075-33.2992L284.09925 83.093l1.8084 1.8084c-10.397-.014-20.79422.01076-31.19139-.06643l-31.1915-.16538-31.19139-.24725c-10.39717-.07672-20.79434-.27368-31.19151-.40467l.92479-.92467c-.11591 11.16734-.3269 22.33444-.336 33.50177l-.07532 16.75112.04526 16.75088c.07509 11.16733.26444 22.33467.4345 33.502.1476 11.16733.37262 22.33467.44993 33.502l-1.44314-1.44326c10.312-.09309 20.60311-.07719 30.91362-.01356q15.45575.061 30.97548.26432l31.19654.47321z"/><path fill="#020202" d="M171.41009 163.21406s21.11608-15.03 36.6753 0 20.00471 25.72332 35.56393 24.42322 18.89334 18.35454 18.89334 18.35454H171.41009zM240.35339 94.2017l-11.11373 41.6216s30.00707-15.03 30.00707 8.09309 16.39275 17.59926 16.39275 17.59926V94.2017z"/><ellipse cx="192.225" cy="123.234" fill="#020202" rx="18.338" ry="19.077"/><polygon fill="#020202" points="171.41 163.214 171.343 160.451 171.477 160.451 171.41 163.214"/><polygon fill="#020202" points="171.234 154.926 171.184 152.163 171.636 152.163 171.587 154.926 171.234 154.926"/><polygon fill="#020202" points="171.085 146.638 171.047 143.875 171.774 143.875 171.736 146.638 171.085 146.638"/><polygon fill="#020202" points="170.986 138.35 170.955 135.587 171.865 135.587 171.834 138.35 170.986 138.35"/><polygon fill="#020202" points="170.895 130.062 170.864 127.299 171.956 127.299 171.925 130.062 170.895 130.062"/><polygon fill="#020202" points="170.82 121.773 170.809 119.011 172.011 119.011 172.001 121.773 170.82 121.773"/><polygon fill="#020202" points="170.789 113.485 170.779 110.723 172.041 110.723 172.031 113.485 170.789 113.485"/><polygon fill="#020202" points="170.759 105.197 170.749 102.434 172.071 102.434 172.061 105.197 170.759 105.197"/><polygon fill="#020202" points="170.729 96.909 170.721 94.625 170.718 93.942 171.406 93.936 171.885 93.932 171.893 95.313 171.414 95.315 172.099 94.625 172.091 96.909 170.729 96.909"/><polygon fill="#020202" points="177.41 93.918 180.173 93.912 180.181 95.232 177.418 95.259 177.41 93.918"/><polygon fill="#020202" points="185.698 93.898 188.461 93.891 188.469 95.15 185.706 95.177 185.698 93.898"/><polygon fill="#020202" points="193.987 93.877 196.749 93.87 196.757 95.069 193.994 95.096 193.987 93.877"/><polygon fill="#020202" points="202.275 93.864 205.038 93.877 205.044 94.96 202.282 95.008 202.275 93.864"/><polygon fill="#020202" points="210.563 93.904 213.326 93.918 213.332 94.818 210.569 94.865 210.563 93.904"/><polygon fill="#020202" points="218.852 93.945 221.615 93.959 221.619 94.675 218.857 94.723 218.852 93.945"/><polygon fill="#020202" points="227.14 94.016 229.903 94.049 229.906 94.483 227.144 94.549 227.14 94.016"/><polygon fill="#020202" points="235.429 94.115 238.192 94.163 238.193 94.268 235.431 94.348 235.429 94.115"/><path fill="#020202" d="M275.63948,161.51553c.05111.92092.11275,1.84185.1462,2.76277h-.29239C275.52674,163.35738,275.58826,162.43645,275.63948,161.51553Z"/><polygon fill="#020202" points="276.008 169.804 276.081 172.566 275.198 172.566 275.271 169.804 276.008 169.804"/><polygon fill="#020202" points="276.224 178.092 276.261 180.855 275.018 180.855 275.055 178.092 276.224 178.092"/><polygon fill="#020202" points="276.312 186.38 276.325 189.143 274.954 189.143 274.967 186.38 276.312 186.38"/><polygon fill="#020202" points="276.311 194.668 276.294 197.431 274.985 197.431 274.968 194.668 276.311 194.668"/><polygon fill="#020202" points="276.217 202.956 276.144 205.719 275.135 205.719 275.062 202.956 276.217 202.956"/><path fill="#020202" d="M270.38692,206.35024c-.92092-.02339-1.84172-.07508-2.76265-.11134v-.49426c.92093-.036,1.84173-.088,2.76265-.11111Z"/></svg>